<?xml version="1.0" encoding="UTF-8"?>
<svg version="1.1" xmlns="http://www.w3.org/2000/svg" width="778" height="478">
<path d="M0 0 C1.20247375 -0.00100708 2.40494751 -0.00201416 3.64385986 -0.00305176 C22.67747369 0.00771906 41.3161574 0.6411603 60.1875 3.25 C61.30688965 3.39985352 62.4262793 3.54970703 63.57958984 3.70410156 C85.80258422 6.76597968 106.89614209 11.56428767 121.46484375 30.15625 C124.72314968 34.78315894 127.75498128 39.50428313 130.65625 44.359375 C138.06612711 57.45038754 138.06612711 57.45038754 150.37109375 65.28125 C153.96515156 66.08260068 157.54836424 66.69042981 161.1875 67.25 C174.93525367 69.77815057 188.00827705 72.87574547 197.1875 84.25 C201.29195059 91.05411729 201.91317811 97.63112561 202.25 105.4375 C202.31888428 106.71488037 202.38776855 107.99226074 202.45874023 109.30834961 C202.62333099 112.38770993 202.77433782 115.46744361 202.91796875 118.54785156 C203.17558576 124.06110324 203.45587747 129.57309667 203.73707581 135.08518982 C204.8774281 157.49261324 206.0074829 179.90021295 206.76953125 202.32421875 C206.83123253 204.1183596 206.83123253 204.1183596 206.8941803 205.94874573 C207.48168811 224.07684345 207.4967048 242.15491943 206.1875 260.25 C202.37652234 258.97967411 202.04742125 257.73097549 200.0625 254.3125 C195.86257365 247.46751364 190.9341437 240.74776247 184.1875 236.25 C183.73303223 233.58613586 183.73303223 233.58613586 183.61914062 230.13793945 C183.56887222 228.83767319 183.51860382 227.53740692 183.46681213 226.19773865 C183.42559338 224.75292515 183.38457922 223.30810581 183.34375 221.86328125 C183.29036918 220.35554742 183.23560557 218.84786199 183.17955017 217.34022522 C183.06180358 214.1059224 182.95279831 210.87148744 182.85055542 207.63665771 C182.68938972 202.552914 182.50740289 197.47006427 182.32055664 192.38720703 C182.25750651 190.66742002 182.19447252 188.94763242 182.13145447 187.22784424 C182.10005812 186.37178841 182.06866177 185.51573257 182.03631401 184.63373566 C181.94086368 182.01244346 181.84724562 179.39109172 181.75416565 176.76971436 C181.1955306 161.07993485 180.54407866 145.39542584 179.81347656 129.71273804 C179.68744531 127.00118565 179.56595677 124.2894923 179.44873047 121.57754517 C179.28462786 117.809117 179.11049088 114.04128385 178.93359375 110.2734375 C178.887827 109.17983414 178.84206024 108.08623077 178.79490662 106.95948792 C178.44442392 99.8503921 178.025925 92.77364791 174.6875 86.375 C169.24661745 81.75024983 162.19563129 81.19573366 155.3125 80.3125 C140.22674955 78.28581197 126.96056684 72.21163007 117.1875 60.25 C112.74215245 54.17531167 108.74259737 47.78499847 104.796875 41.37890625 C98.04821746 30.47865095 91.89393141 23.88789561 79.2265625 20.4453125 C66.40780043 17.59995799 53.23856541 16.49641511 40.1875 15.25 C39.01646729 15.13760986 39.01646729 15.13760986 37.82177734 15.02294922 C8.35238181 12.36325648 -21.85604517 14.07605833 -51.07278442 18.25137329 C-52.49801795 18.45504087 -53.92385116 18.65456548 -55.35031128 18.84945679 C-67.69579494 20.56205805 -78.36825505 23.65426418 -88.125 31.625 C-106.45720977 45.68347205 -128.27774095 49.71668934 -150.8125 52.25 C-151.59004639 52.33918701 -152.36759277 52.42837402 -153.16870117 52.52026367 C-159.22642876 53.14337466 -165.28083938 53.41509327 -171.36328125 53.64453125 C-172.66457474 53.69578659 -172.66457474 53.69578659 -173.99215698 53.74807739 C-181.36761948 54.03848964 -181.36761948 54.03848964 -184.84350586 54.14868164 C-196.11673307 54.5144375 -206.11326294 55.40667416 -216.8125 59.25 C-217.53638916 59.50048096 -218.26027832 59.75096191 -219.00610352 60.0090332 C-238.60323109 67.16906568 -253.42861688 80.6189043 -262.77099609 99.15136719 C-264.74744375 103.42530984 -266.32398771 107.78446314 -267.8125 112.25 C-268.20179688 113.41789062 -268.59109375 114.58578125 -268.9921875 115.7890625 C-277.58344274 144.57290304 -272.92094229 175.04066134 -269.03533936 204.2265625 C-268.27440818 209.95592668 -267.53122354 215.68760121 -266.79101753 221.41967392 C-266.53404529 223.39382884 -266.27039971 225.36711149 -266.00657654 227.34036255 C-265.26411518 233.01796336 -264.57969887 238.52171332 -264.8125 244.25 C-271.13209463 243.49719562 -277.42463481 242.63553071 -283.5 240.6875 C-284.28761719 240.43871094 -285.07523438 240.18992188 -285.88671875 239.93359375 C-290.49554157 235.90437948 -290.29329866 226.47789424 -291.03125 220.61328125 C-291.13411316 219.81988846 -291.23697632 219.02649567 -291.34295654 218.20906067 C-291.67130618 215.66083542 -291.99267646 213.11180851 -292.3125 210.5625 C-292.42299683 209.68873718 -292.53349365 208.81497437 -292.64733887 207.91473389 C-294.31274201 194.71642913 -295.94224986 181.52873159 -296.8125 168.25 C-296.91304687 166.77200928 -296.91304687 166.77200928 -297.015625 165.26416016 C-299.29309741 129.93596428 -294.45878167 97.06223443 -270.515625 69.6171875 C-258.16301721 56.41685172 -241.35739286 48.02256397 -224.0625 43.375 C-223.30686768 43.17165039 -222.55123535 42.96830078 -221.77270508 42.75878906 C-212.86151031 40.53412303 -203.86536139 40.19135209 -194.71826172 39.9597168 C-162.13939944 39.1184558 -130.11212028 37.38294927 -103.2265625 17.3203125 C-85.33234111 4.16777754 -60.24470833 3.39761448 -38.8125 1.25 C-37.91055908 1.15283691 -37.00861816 1.05567383 -36.0793457 0.95556641 C-24.09237622 -0.16723558 -12.02785173 0.00697136 0 0 Z " fill="#DAD4C1" transform="translate(431.8125,-0.25)"/>
<path d="M0 0 C2.76005716 1.59565804 5.06903514 2.14577734 8.1875 2.7578125 C24.34149635 6.6134175 35.05836216 18.82613679 43.5 32.4453125 C45.59358092 36.06699165 47.59648019 39.7203855 49.5 43.4453125 C49.52578125 42.56230469 49.5515625 41.67929687 49.578125 40.76953125 C50.03675147 31.06541201 51.06034422 20.49340745 58.5 13.4453125 C69.08685484 4.90690878 79.46000496 1.69184103 93.1328125 2.625 C104.63760448 4.43765211 114.84927216 10.81551529 122.5 19.4453125 C126.74125243 25.27583785 128.34619428 30.93562241 128.07421875 38.12890625 C126.95318027 44.60347544 124.22761682 50.50300443 121.5 56.4453125 C109.70316748 53.42165834 109.70316748 53.42165834 106.5 49.4453125 C106.29824206 44.60312189 108.07009224 41.0287135 110 36.6328125 C112.38154 31.19027297 113.35599568 26.36258106 113.5 20.4453125 C105.90835349 16.00142186 96.78709964 16.27991196 88.36328125 18.13671875 C79.63983342 21.04453469 72.64154321 25.82132297 67.6875 33.65625 C65.29448068 39.27669669 64.96142189 45.40705016 64.5 51.4453125 C65.23001221 51.4546582 65.96002441 51.46400391 66.7121582 51.47363281 C70.07957643 51.52793313 73.445693 51.61146132 76.8125 51.6953125 C78.53436523 51.71658203 78.53436523 51.71658203 80.29101562 51.73828125 C92.80855469 52.09288576 102.46265849 55.49449568 111.40625 64.328125 C118.31050787 71.78823414 121.9237722 79.38992985 121.7734375 89.59765625 C120.86445679 99.0640411 116.92984674 106.59122845 110.5 113.4453125 C109.92636719 114.06019531 109.35273438 114.67507813 108.76171875 115.30859375 C99.81278829 123.95092274 87.36470537 128.48285783 75.5 131.4453125 C74.60667969 131.67089844 73.71335937 131.89648438 72.79296875 132.12890625 C51.75749951 136.49248714 29.75415777 133.92994868 11.5 122.4453125 C7.83332588 119.71616818 4.65083932 116.75011954 1.5 113.4453125 C0.70980469 112.63964844 -0.08039063 111.83398438 -0.89453125 111.00390625 C-11.63446057 99.62278712 -17.14071778 88.81562136 -16.87109375 73.06640625 C-16.38089901 68.28313762 -14.98238775 64.53460303 -12.5 60.4453125 C-13.62277344 60.49171875 -14.74554688 60.538125 -15.90234375 60.5859375 C-32.34739646 61.07464089 -32.34739646 61.07464089 -38.5 56.4453125 C-41.00313703 54.07816933 -43.37966739 51.62105392 -45.75 49.12109375 C-52.8916463 42.17219074 -61.22437064 36.16546669 -71.3125 35.0078125 C-78.75740697 35.276735 -84.12353908 39.72850557 -89.125 44.8828125 C-98.06334521 55.38654216 -103.13205704 67.91353764 -102.7421875 81.75390625 C-101.7384464 92.90838392 -98.43311691 103.63601716 -90.25390625 111.64453125 C-88.07166329 113.39989363 -85.86711778 114.95166992 -83.5 116.4453125 C-82.0459375 117.404375 -82.0459375 117.404375 -80.5625 118.3828125 C-75.21697736 120.23738158 -70.24602078 120.69194596 -64.99609375 118.30859375 C-59.2385615 114.6947226 -55.67383218 110.96680904 -53.5 104.4453125 C-52.79196642 97.26051276 -53.20810262 91.40628109 -57.5 85.4453125 C-60.39111473 82.31978306 -61.75987648 81.53782794 -66 81.0078125 C-69.46190104 81.15891898 -69.46190104 81.15891898 -71.66796875 82.9921875 C-75.67099614 85.04615466 -78.92326584 84.54855723 -83.3125 84.1328125 C-84.10076172 84.07158203 -84.88902344 84.01035156 -85.70117188 83.94726562 C-87.63534873 83.79487593 -89.56790219 83.62211969 -91.5 83.4453125 C-91.5 82.7853125 -91.5 82.1253125 -91.5 81.4453125 C-78.99685282 74.47547301 -65.76215841 72.18185566 -51.625 75.6328125 C-43.68317718 78.14383001 -37.4375444 81.89131102 -33.5 89.4453125 C-31.28848232 96.72782615 -32.68736459 103.5509257 -35.5 110.4453125 C-40.12081113 117.72659064 -47.67005456 121.84268267 -55.8125 124.3203125 C-70.48517996 127.47796399 -87.97954158 127.05338413 -101.39453125 119.90234375 C-112.25962342 112.78383509 -118.91449546 103.12408238 -121.8125 90.4453125 C-124.30935661 75.20008222 -121.03906093 61.31239061 -112.5 48.4453125 C-105.10772224 38.77509626 -93.51586087 32.37608614 -81.5 30.4453125 C-63.25929649 28.96120449 -47.71552326 30.52189736 -32.5 41.4453125 C-30.16697533 43.6240876 -27.98468896 45.89519576 -25.796875 48.21875 C-21.91287986 51.98384733 -17.44195416 55.21948747 -12.5 57.4453125 C-8.65213177 57.3108239 -6.32411047 54.8771854 -3.5 52.4453125 C-4.20125 52.04441406 -4.9025 51.64351563 -5.625 51.23046875 C-14.33487236 46.01164577 -22.72627034 39.67344061 -25.5 29.4453125 C-26.31091374 20.87279581 -25.2807475 15.61643374 -20.5 8.4453125 C-28.8624978 10.75856159 -37.05471471 13.14556932 -45.0625 16.5078125 C-59.57246122 22.49433168 -73.21933951 25.69919577 -88.5 20.4453125 C-98.30426705 16.00310455 -107.08768995 10.97097819 -112.5 1.4453125 C-112.5 0.7853125 -112.5 0.1253125 -112.5 -0.5546875 C-109.30203193 0.09070742 -106.87275303 1.24146888 -104.0625 2.8828125 C-92.1443489 9.82643097 -81.52674262 8.80304287 -68.5 5.4453125 C-63.25780854 3.90348172 -58.09881707 2.1106985 -52.9375 0.3203125 C-50.94402301 -0.36522491 -48.94979363 -1.04841674 -46.95436096 -1.72824097 C-45.1677619 -2.33775625 -43.38348274 -2.95405948 -41.59936523 -3.57080078 C-28.61442806 -7.6928407 -11.77014814 -7.31956087 0 0 Z M-5.50390625 20.21484375 C-9.74882436 24.84969171 -12.26081183 28.85748993 -12.6875 35.2578125 C-12.73861539 37.42140903 -12.73861539 37.42140903 -11.5 38.4453125 C-5.92466394 39.12800671 -2.76664578 37.94770785 1.70703125 34.8671875 C6.02106006 31.44604047 8.31896347 27.81366035 9.5 22.4453125 C9.20108766 18.67788471 9.20108766 18.67788471 8.5 15.4453125 C2.95868819 15.4453125 -1.34353164 16.54106266 -5.50390625 20.21484375 Z M17.5 16.4453125 C17.78875 17.1465625 18.0775 17.8478125 18.375 18.5703125 C18.74625 19.5190625 19.1175 20.4678125 19.5 21.4453125 C20.056875 22.775625 20.056875 22.775625 20.625 24.1328125 C22.16589781 29.96621136 22.37010601 35.32679351 20.0625 40.9453125 C19.2890625 42.1828125 19.2890625 42.1828125 18.5 43.4453125 C18.17 44.1053125 17.84 44.7653125 17.5 45.4453125 C18.38300781 45.48269531 19.26601563 45.52007812 20.17578125 45.55859375 C27.98878863 45.98658878 35.05401004 47.02916474 42.5 49.4453125 C40.06356744 39.16588749 35.21717823 26.0877309 26.2109375 19.86328125 C25.05464844 19.25419922 25.05464844 19.25419922 23.875 18.6328125 C23.09898437 18.21386719 22.32296875 17.79492188 21.5234375 17.36328125 C19.56676565 16.30759898 19.56676565 16.30759898 17.5 16.4453125 Z M50.5 46.4453125 C51.5 48.4453125 51.5 48.4453125 51.5 48.4453125 Z M53.5 53.4453125 C54.5 55.4453125 54.5 55.4453125 54.5 55.4453125 Z M54.5 55.4453125 C55.06739868 59.57504878 55.06739868 59.57504878 56.5 63.4453125 C55.77554688 63.16816406 55.05109375 62.89101563 54.3046875 62.60546875 C40.52225352 57.44165015 28.27558904 56.91544704 14.43359375 62.734375 C7.05697483 66.48791986 0.97075774 71.31964067 -2.02734375 79.30859375 C-3.97038318 88.09241663 -2.97408074 96.65907647 1.5 104.4453125 C6.66404289 112.4862595 14.29714282 116.69470966 23.37890625 119.2578125 C45.1591195 123.52495632 69.57523269 119.51916666 88.5625 108.0078125 C96.39459442 102.64159488 101.35401691 96.98116004 105.5 88.4453125 C105.9125 87.6409375 106.325 86.8365625 106.75 86.0078125 C108.23696167 80.92736014 108.89108008 75.742908 108 70.5078125 C105.74520759 67.40747293 103.11465729 66.36441011 99.5 65.4453125 C93.24666367 64.95506836 86.96988262 65.0568933 80.70117188 65.09375 C70.00860635 64.96550334 62.52972991 62.67206942 54.5 55.4453125 Z " fill="#B8AC87" transform="translate(260.5,250.5546875)"/>
<path d="M0 0 C-0.0721875 0.95519531 -0.144375 1.91039062 -0.21875 2.89453125 C-0.46203428 6.28361647 -0.68475708 9.67212044 -0.88427734 13.06396484 C-0.98242643 14.70599485 -1.09333918 16.34725416 -1.20703125 17.98828125 C-1.67896098 29.7865244 2.37028496 40.08475311 10 49 C18.44664502 57.90737111 30.74044401 60.59026983 42.61523438 61.11572266 C48.78453045 61.18834086 54.77119574 60.7404865 60.875 59.875 C61.79917725 59.74810791 62.72335449 59.62121582 63.67553711 59.49047852 C71.71548634 58.32094721 79.62367904 56.65129207 87.5625 54.9375 C118.51157115 48.31883682 148.39133907 47.44197533 176.43359375 64.03125 C199.28122425 79.17157657 216.51096647 101.14304572 222.8125 128.0625 C226.97470678 151.31344821 222.9679298 174.49870021 209.83203125 194.26171875 C202.71644972 203.49308381 193.56269889 210.551258 182 213 C168.18666189 214.35342808 157.04780474 211.6566967 146 203 C144.21649265 201.40027326 142.61667533 199.77312778 141 198 C140.21689453 199.01320313 140.21689453 199.01320313 139.41796875 200.046875 C133.44455828 207.2861045 128.19210702 210.87623328 118.875 212.33203125 C108.10189424 212.91847047 97.92624665 207.34200176 90.1015625 200.4453125 C81.7176931 192.49872874 75.76101651 184.69251505 74 173 C73.94673942 167.20981443 74.68367468 162.31896926 77 157 C74.13795754 156.04598585 72.16463673 155.83769254 69.18359375 155.75390625 C67.79043945 155.70459961 67.79043945 155.70459961 66.36914062 155.65429688 C64.41092918 155.59298046 62.45258715 155.5357041 60.49414062 155.48242188 C59.56666016 155.44826172 58.63917969 155.41410156 57.68359375 155.37890625 C56.40826782 155.34132202 56.40826782 155.34132202 55.10717773 155.30297852 C53 155 53 155 51 153 C49.30337209 147.43883073 49 144.07630511 49 138 C68.47 137.67 87.94 137.34 108 137 C106.35 135.68 104.7 134.36 103 133 C100.82532678 128.65065355 101.20475139 122.44936571 102.68359375 117.89453125 C104.98268935 113.5729947 108.1637802 110.87716485 112 108 C100.86204652 105.1957073 92.86948377 104.53101582 82 108 C83.89391709 102.82254619 87.99013795 101.55570709 92.7265625 99.328125 C107.80018607 93.21233501 123.24737879 95.38234725 137.97265625 101.16796875 C148.62317842 105.69480692 157.70156813 112.09241923 162.3125 123 C166.15065284 133.55890181 165.64088264 144.20515125 163 155 C161.32125234 156.67874766 159.25164361 156.13344411 156.94873047 156.1418457 C155.33102249 156.15239738 155.33102249 156.15239738 153.68063354 156.16316223 C151.91672775 156.16940865 151.91672775 156.16940865 150.1171875 156.17578125 C147.6458249 156.19898823 145.17447071 156.22310592 142.703125 156.24804688 C138.79258678 156.28312007 134.88235579 156.3124747 130.97167969 156.32592773 C127.20729904 156.34142588 123.44382743 156.38166276 119.6796875 156.42578125 C118.51589569 156.42387283 117.35210388 156.42196442 116.15304565 156.41999817 C109.48615735 156.52018474 105.47993909 157.16385779 100 161 C99.01 161.33 98.02 161.66 97 162 C95.91321285 163.8181918 95.91321285 163.8181918 95 166 C94.57460938 166.7115625 94.14921875 167.423125 93.7109375 168.15625 C89.95589521 174.74404349 88.82516973 180.4615058 90 188 C92.1102563 192.45498552 94.36801849 195.22604963 99 197 C107.05111708 198.17249278 113.32582702 196.60975392 120 192 C128.02320548 185.35713095 130.0763808 174.77839758 132 165 C137.50930954 166.34373403 141.08621081 169.03230187 145 173 C146.92046336 176.84092673 146.3651877 182.04885911 146.5234375 186.30078125 C147.15691041 191.21798491 148.37645187 193.72515207 152.2734375 196.78515625 C159.14844941 199.84837789 167.81559085 198.72703868 174.8125 196.4375 C189.70964265 190.20301299 198.20163375 177.24823935 204.25 162.875 C211.67838921 143.36391963 210.40687467 121.14561104 202.453125 102.00390625 C194.06195925 84.65765233 181.5390367 74.38544593 163.59375 67.73828125 C141.70058516 61.18413001 119.29552725 65.45344842 97.53564453 70.24804688 C94.32164286 70.9315937 91.11043481 71.52953993 87.87109375 72.078125 C86.96149902 72.23700195 86.0519043 72.39587891 85.11474609 72.55957031 C83.49131517 72.83971852 81.8654315 73.10625063 80.23681641 73.35449219 C75.11947516 74.28701107 71.95355426 76.21634935 67.92700195 79.47558594 C65.07848703 81.72899113 62.01742619 83.43371528 58.8125 85.125 C58.17320557 85.464104 57.53391113 85.80320801 56.87524414 86.15258789 C42.96123762 93.29947601 26.45735382 96.70621942 11.0625 92.75 C9.36296088 92.20273334 7.67367716 91.62188327 6 91 C5.29488281 90.74476563 4.58976562 90.48953125 3.86328125 90.2265625 C-7.41307469 85.39700337 -13.65895438 74.94569183 -18.21875 64.1015625 C-24.46656306 47.81262131 -22.46261339 31.57529347 -15.453125 15.76171875 C-12.68067211 10.4925677 -6.73498392 0 0 0 Z M0 49 C-1.03827786 57.92918962 3.08492827 66.8219816 8.25 73.9375 C12.48960426 78.98597612 17.72480546 82.90826849 24 85 C34.04520366 85.8238651 34.04520366 85.8238651 43 82 C46.38344254 78.89551422 46.38344254 78.89551422 48 75 C46.77925781 74.72027344 45.55851562 74.44054687 44.30078125 74.15234375 C26.24148398 69.83393614 13.0354863 62.34220362 0 49 Z M120 112 C118.44014791 113.55985209 118.75547656 115.08906098 118.6875 117.25 C118.72093216 120.74923295 118.93775949 121.89698122 120.8125 125 C122.92032952 127.19941932 122.92032952 127.19941932 126 128 C127.52198031 122.92673232 126.53338512 120.22099523 124.203125 115.734375 C122.95020315 113.70138997 122.95020315 113.70138997 120 112 Z M140 125 C139.34 125.721875 138.68 126.44375 138 127.1875 C130.96557485 134.08514466 123.58060526 136.20363651 114 138 C114 138.33 114 138.66 114 139 C124.89 139 135.78 139 147 139 C146.00556163 133.03336979 145.13039917 130.83788962 142 126 C141.34 125.67 140.68 125.34 140 125 Z " fill="#B7AB86" transform="translate(411,167)"/>
<path d="M0 0 C0.87978516 0.66515625 0.87978516 0.66515625 1.77734375 1.34375 C19.04188929 14.66791691 29.13620828 37.93237982 32 59 C32.2832155 63.10896268 32.33283616 67.19474629 32.3125 71.3125 C32.31056641 72.94529907 32.31056641 72.94529907 32.30859375 74.61108398 C32.2117383 82.74270429 31.35038108 90.17938678 29 98 C28.39526855 98.08564209 27.79053711 98.17128418 27.16748047 98.25952148 C24.40321329 98.65143032 21.63910597 99.04445583 18.875 99.4375 C17.92367187 99.57220703 16.97234375 99.70691406 15.9921875 99.84570312 C11.3181013 100.51111123 6.65232392 101.1932839 2 102 C2.52400391 100.26363281 2.52400391 100.26363281 3.05859375 98.4921875 C3.51841868 96.95318161 3.97804352 95.41411593 4.4375 93.875 C4.66759766 93.11445313 4.89769531 92.35390625 5.13476562 91.5703125 C11.62341438 69.75340653 8.58893766 46.03640727 -2 26 C-4.45608592 22.14394511 -7.1379324 18.56155459 -10 15 C-10.68642578 14.05060547 -10.68642578 14.05060547 -11.38671875 13.08203125 C-21.29714723 0.07645393 -39.64179285 -7.7544052 -55.24609375 -10.58984375 C-81.86210855 -13.4979411 -105.85758446 -7.54623825 -127 9 C-150.60516527 28.40794528 -166.19642338 57.28868883 -169.7890625 87.71044922 C-171.11227206 102.07278636 -169.70913624 115.88991543 -167 130 C-179 136 -179 136 -181.328125 137.0078125 C-183.35077723 137.96158733 -183.35077723 137.96158733 -184 141 C-184.66 141 -185.32 141 -186 141 C-196.17873073 116.41944813 -197.06422294 89.58096177 -190 64 C-189.81808105 63.32727051 -189.63616211 62.65454102 -189.44873047 61.96142578 C-181.04912535 31.86847055 -160.89996491 4.87619366 -134 -11 C-92.51426353 -33.83070028 -36.51945364 -31.74435013 0 0 Z " fill="#DAD4C1" transform="translate(484,110)"/>
<path d="M0 0 C8.68392116 8.60184251 14.12367982 19.52380522 14.37890625 31.734375 C14.28045516 41.23490484 11.48834763 47.271311 5.0234375 54.14453125 C-11.42537262 70.13369399 -35.75562735 76.12731179 -57.93359375 79.046875 C-58.60583984 79.1411377 -59.27808594 79.23540039 -59.97070312 79.33251953 C-68.9947924 80.42628924 -78.10754991 80.28978442 -87.18359375 80.296875 C-88.07587677 80.29788208 -88.96815979 80.29888916 -89.88748169 80.29992676 C-103.44165413 80.28957902 -116.61530511 79.7763163 -129.93359375 77.046875 C-130.69027344 76.89702148 -131.44695312 76.74716797 -132.2265625 76.59277344 C-154.80046003 72.01777097 -174.74793325 62.86761011 -194.62109375 51.421875 C-204.14644252 45.94394465 -213.69851088 41.05678418 -223.93359375 37.046875 C-224.98063477 36.63598633 -224.98063477 36.63598633 -226.04882812 36.21679688 C-265.50736075 21.12436274 -314.34808468 19.66536283 -353.48779297 36.87988281 C-360.17858368 40.07233436 -366.67141519 43.68669653 -373.15112305 47.28491211 C-374.22918213 47.88311768 -375.30724121 48.48132324 -376.41796875 49.09765625 C-377.86768066 49.91230347 -377.86768066 49.91230347 -379.34667969 50.7434082 C-381.58855259 51.87301933 -383.48247959 52.57942801 -385.93359375 53.046875 C-373.94027976 31.9086591 -349.50560739 18.70147862 -326.99609375 11.796875 C-299.14461443 4.39448847 -270.17200516 7.76716032 -242.93359375 16.046875 C-242.14162598 16.2835791 -241.3496582 16.5202832 -240.53369141 16.76416016 C-222.99310796 22.11642278 -207.30549409 30.82096323 -191.43359375 39.859375 C-148.24593015 64.39546523 -91.90948381 71.23205685 -43.93359375 58.046875 C-25.91689999 52.85058962 -7.26901753 44.87404041 3.01171875 28.3203125 C5.20762973 23.58690439 5.71279658 18.98604598 4.06640625 14.046875 C1.77313503 12.91535039 1.77313503 12.91535039 -0.93359375 12.046875 C-1.74957031 11.70527344 -2.56554687 11.36367188 -3.40625 11.01171875 C-14.53257559 6.59810845 -25.57816891 5.59572126 -36.80859375 10.234375 C-39.41491274 11.23090873 -40.35634519 11.04803694 -42.93359375 10.046875 C-44.34765625 8.33984375 -44.34765625 8.33984375 -45.55859375 6.234375 C-45.96335937 5.54730469 -46.368125 4.86023438 -46.78515625 4.15234375 C-47.16414063 3.45753906 -47.543125 2.76273437 -47.93359375 2.046875 C-48.31257813 1.36238281 -48.6915625 0.67789062 -49.08203125 -0.02734375 C-49.93359375 -1.953125 -49.93359375 -1.953125 -49.93359375 -4.953125 C-32.89898662 -11.57598311 -14.7559307 -12.35380245 0 0 Z " fill="#B8AB86" transform="translate(385.93359375,387.953125)"/>
<path d="M0 0 C1.25425781 0.01804687 2.50851562 0.03609375 3.80078125 0.0546875 C5.22970703 0.08949219 5.22970703 0.08949219 6.6875 0.125 C5.965625 0.785 5.24375 1.445 4.5 2.125 C-1.30788257 7.9163359 -4.44703137 14.10460475 -4.5625 22.3125 C-4.49029042 30.42705188 -2.8899607 35.9705606 2.6875 42.125 C7.06572756 36.85361402 7.33208729 32.46766452 7.4375 25.75 C7.48197266 24.35974609 7.48197266 24.35974609 7.52734375 22.94140625 C7.59761861 20.66918565 7.65052048 18.39796541 7.6875 16.125 C12.04340568 14.49650031 15.92684612 13.78381554 20.5625 13.5 C21.71492188 13.42523438 22.86734375 13.35046875 24.0546875 13.2734375 C24.92351562 13.22445313 25.79234375 13.17546875 26.6875 13.125 C26.7376123 13.74318604 26.78772461 14.36137207 26.83935547 14.99829102 C27.07647174 17.89503459 27.31858757 20.7913206 27.5625 23.6875 C27.65128418 24.74509521 27.74006836 25.80269043 27.83154297 26.89233398 C28.32099321 32.53219426 28.93105425 38.09661551 29.8125 43.6875 C30.68968516 49.94709328 30.93579656 56.1260915 31 62.4375 C31.01756348 63.34508057 31.03512695 64.25266113 31.05322266 65.18774414 C31.04511823 74.06938895 29.28791272 82.33889095 23.5234375 89.3125 C14.69170748 98.03148453 1.80093977 101.24189112 -10.3125 101.5625 C-16.26699538 101.32927619 -20.57845329 100.75940036 -25.02734375 96.47265625 C-28.38923303 92.73107124 -30.11992008 90.08931517 -30.625 84.9375 C-30.24336794 80.2815889 -29.32768924 76.76196556 -26.3125 73.125 C-20.43538191 70.69308907 -14.60761701 70.89280306 -8.3125 71.125 C-8.6425 71.95 -8.9725 72.775 -9.3125 73.625 C-10.84404655 78.98541291 -11.01617495 83.16211724 -9.125 88.4375 C-7.06664954 91.48953688 -5.7687477 92.83895434 -2.3125 94.125 C1.47921272 93.37065399 3.20759818 92.78230142 5.515625 89.62109375 C12.10860458 75.43894263 12.3906866 63.57533561 10.6875 48.125 C9.64722656 48.59679687 9.64722656 48.59679687 8.5859375 49.078125 C2.32061099 51.34107312 -4.61955629 51.42904203 -11.1875 50.6875 C-17.02984415 47.76632793 -20.89505173 42.94479626 -23.25 36.875 C-25.52262456 28.62253208 -25.25970969 20.2745374 -21.71484375 12.453125 C-16.39521117 3.62164585 -10.25273599 -0.19163993 0 0 Z " fill="#B7AB86" transform="translate(420.3125,280.875)"/>
<path d="M0 0 C9.88809871 1.72649343 17.136472 5.05055934 23.5625 12.94921875 C28.02853872 19.32060551 29.14511592 26.02222203 29.25 33.6875 C29.27578125 34.82574219 29.3015625 35.96398437 29.328125 37.13671875 C29.21984375 38.08160156 29.1115625 39.02648437 29 40 C24.3287923 43.11413847 19.47234539 42.47711334 14 42 C9.7882791 40.47506657 8.48013792 39.72020689 6 36 C5.41403704 32.26285847 5.04578509 28.52440792 4.66015625 24.76171875 C3.82469211 20.0010562 2.43760375 16.43760375 -1 13 C-1.23046875 10.9765625 -1.23046875 10.9765625 -1.1875 8.625 C-1.18105469 7.85414063 -1.17460937 7.08328125 -1.16796875 6.2890625 C-1.00595151 4.08110656 -0.60634894 2.12464668 0 0 Z " fill="#DBD4C2" transform="translate(424,163)"/>
<path d="M0 0 C-0.33 1.32 -0.66 2.64 -1 4 C-1.66 4 -2.32 4 -3 4 C-4.42392116 5.28095719 -5.79233821 6.62434912 -7.125 8 C-8.21167969 9.11375 -8.21167969 9.11375 -9.3203125 10.25 C-9.87460937 10.8275 -10.42890625 11.405 -11 12 C-11 8.26071501 -10.08040398 7.59097747 -7.625 4.875 C-6.99851562 4.17117187 -6.37203125 3.46734375 -5.7265625 2.7421875 C-3.76461964 0.7624895 -2.80497398 0 0 0 Z " fill="#CEC6AD" transform="translate(411,167)"/>
<path d="M0 0 C0.66 0.33 1.32 0.66 2 1 C1.4375 2.875 1.4375 2.875 0 5 C-3.625 6.25 -3.625 6.25 -7 7 C-5.55609075 3.19333016 -3.65047197 1.73397418 0 0 Z " fill="#CBC2A7" transform="translate(500,268)"/>
<path d="M0 0 C0.66 0.33 1.32 0.66 2 1 C-0.97 3.97 -3.94 6.94 -7 10 C-7 6.04435836 -5.59478606 4.89133304 -3 2 C-2.01 1.34 -1.02 0.68 0 0 Z " fill="#CFC7AF" transform="translate(522,276)"/>
</svg>
